<?xml version="1.0" encoding="UTF-8"?>
<svg width="96px" height="96px" viewBox="0 0 96 96" version="1.1" xmlns="http://www.w3.org/2000/svg" xmlns:xlink="http://www.w3.org/1999/xlink">
    <g id="Page-1" stroke="none" stroke-width="1" fill="none" fill-rule="evenodd">
        <g id="iconmonstr-facebook-6" fill="#C6C8C3" fill-rule="nonzero">
            <path d="M90.7,-2.66453526e-15 L5.3,-2.66453526e-15 C2.372,-2.66453526e-15 -2.66453526e-15,2.372 -2.66453526e-15,5.3 L-2.66453526e-15,90.704 C-2.66453526e-15,93.628 2.372,96 5.3,96 L51.28,96 L51.28,58.824 L38.768,58.824 L38.768,44.336 L51.28,44.336 L51.28,33.652 C51.28,21.252 58.852,14.5 69.916,14.5 C75.216,14.5 79.768,14.896 81.096,15.072 L81.096,28.032 L73.424,28.036 C67.408,28.036 66.244,30.896 66.244,35.088 L66.244,44.34 L80.592,44.34 L78.724,58.828 L66.244,58.828 L66.244,96 L90.708,96 C93.628,96 96,93.628 96,90.7 L96,5.3 C96,2.372 93.628,-2.66453526e-15 90.7,-2.66453526e-15 Z" id="Path"></path>
        </g>
    </g>
</svg>