<?xml version="1.0" encoding="UTF-8"?>
<svg width="118px" height="96px" viewBox="0 0 118 96" version="1.1" xmlns="http://www.w3.org/2000/svg" xmlns:xlink="http://www.w3.org/1999/xlink">
    <g id="Page-1" stroke="none" stroke-width="1" fill="none" fill-rule="evenodd">
        <g id="iconmonstr-twitter-1-1" fill="#C6C8C3" fill-rule="nonzero">
            <path d="M118,11.3650533 C113.658583,13.2945037 108.992667,14.5939295 104.095667,15.1796555 C109.095917,12.1821165 112.935833,7.43232158 114.74025,1.77194422 C110.0645,4.54799016 104.882333,6.56603774 99.3658333,7.6538146 C94.9555833,2.94339623 88.6573333,0 81.6953333,0 C66.06525,0 54.5799167,14.5988515 58.1100833,29.7538966 C37.996,28.7448728 20.1583333,19.097621 8.21575,4.43478261 C1.87325,15.3273175 4.9265,29.5767022 15.7038333,36.7924528 C11.741,36.6644791 8.00433333,35.5767022 4.74458333,33.7604594 C4.47908333,44.9876948 12.5178333,55.4913864 24.1605,57.8293683 C20.75325,58.754717 17.0215,58.9712879 13.2258333,58.242822 C16.3036667,67.8703856 25.2421667,74.8744873 35.8425,75.07137 C25.665,83.0598852 12.8423333,86.6283839 0,85.1123872 C10.7134167,91.9885152 23.4426667,96 37.111,96 C82.0591667,96 107.45375,57.9967186 105.91975,23.9114028 C110.649583,20.490566 114.755,16.2231337 118,11.3650533 Z" id="Path"></path>
        </g>
    </g>
</svg>